<?xml version="1.0" encoding="utf-8"?>
<!-- Generator: Adobe Illustrator 19.2.1, SVG Export Plug-In . SVG Version: 6.00 Build 0)  -->
<svg version="1.1" id="Layer_1" xmlns="http://www.w3.org/2000/svg" xmlns:xlink="http://www.w3.org/1999/xlink" x="0px" y="0px"
	 viewBox="0 0 55 50" style="enable-background:new 0 0 55 50;" xml:space="preserve">
<style type="text/css">
	.st0{fill-rule:evenodd;clip-rule:evenodd;}
	.st1{fill-rule:evenodd;clip-rule:evenodd;fill:none;}
	.st2{fill-rule:evenodd;clip-rule:evenodd;fill:#0073CF;}
</style>
<path class="st0" d="M77.8-68.4c-2.4-3.3-4-7.2-4.2-11.5h3.8v-2.7h-3.8c0.7-10.8,9.4-19.5,20.2-20.2v3.8h2.7v-3.8
	c4.3,0.3,8.3,1.8,11.6,4.3l2.2-1.7c-4.2-3.3-9.4-5.3-15.1-5.3c-13.4,0-24.3,10.9-24.3,24.3c0,5.7,2,10.9,5.3,15L77.8-68.4z"/>
<path class="st0" d="M112.5-94c2.4,3.3,4,7.2,4.2,11.5h-3.8v2.7h3.8C116-69,107.3-60.4,96.5-59.7v-3.8h-2.7v3.8
	c-4.2-0.3-8.1-1.8-11.4-4.1l-2.2,1.7c4.1,3.2,9.3,5.1,14.9,5.1c13.4,0,24.3-10.9,24.3-24.3c0-5.7-2-10.9-5.2-15L112.5-94z"/>
<path class="st0" d="M92.1-83.5l-19,24.4l24.4-19l19-24.4L92.1-83.5z M78.5-64.5L93-82.6l3.6,3.6L78.5-64.5z"/>
<g>
	<defs>
		<path id="SVGID_1_" d="M35.2,0.9c4.9,0,9.9,0,14.8,0c1.4,0,2.6,0.7,3,2c0.2,0.4,0.2,0.8,0.2,1.2c0,9.3,0,18.6,0,27.9
			c0,1.9-1.3,3.2-3.2,3.2c-3.9,0-7.9,0-11.8,0c-0.2,0-0.3,0.1-0.4,0.2c-0.8,1.3-1.7,2.6-2.5,3.9c-0.1,0.2-0.1,0.2-0.3,0
			c-0.8-1.3-1.7-2.6-2.5-3.9c-0.1-0.2-0.2-0.2-0.4-0.2c-3.9,0-7.9,0-11.8,0c-1.5,0-2.7-0.9-3-2.3c-0.1-0.3-0.1-0.6-0.1-1
			c0-9.3,0-18.6,0-27.8c0-1.9,1.3-3.2,3.3-3.2C25.4,0.9,30.3,0.9,35.2,0.9 M40.1,10.5c-0.1-0.1-0.1-0.1-0.1-0.1
			c-1.5-1.5-3-3-4.5-4.4c-0.2-0.2-0.3-0.2-0.5,0c-1.4,1.4-2.9,2.9-4.4,4.3c-2.9,2.8-5.8,5.7-8.6,8.5c0,0-0.1,0.1-0.1,0.2
			c1.4,0,2.8,0,4.2,0c0.2,0,0.3,0,0.3,0.3c0,3.7,0,7.3,0,11c0,0.3,0.1,0.3,0.3,0.3c5.7,0,11.4,0,17.1,0c0.3,0,0.3,0,0.3-0.3
			c0-3.7,0-7.3,0-11c0-0.2,0.1-0.3,0.3-0.3c1.3,0,2.7,0,4,0c0.1,0,0.2,0,0.2-0.1c-0.1-0.1-0.2-0.1-0.2-0.2c-1.4-1.4-2.8-2.7-4.1-4.1
			c-0.1-0.1-0.2-0.2-0.2-0.4c0-1.9,0-3.8,0-5.8c0-0.2,0-0.2-0.2-0.2c-1.2,0-2.3,0-3.5,0c-0.2,0-0.2,0.1-0.2,0.3
			C40.1,9.1,40.1,9.7,40.1,10.5"/>
	</defs>
	<use xlink:href="#SVGID_1_"  style="overflow:visible;fill-rule:evenodd;clip-rule:evenodd;fill:#0073CF;"/>
	<clipPath id="SVGID_2_">
		<use xlink:href="#SVGID_1_"  style="overflow:visible;"/>
	</clipPath>
</g>
<rect x="17.2" y="0.9" class="st1" width="36.1" height="38.5"/>
<path class="st2" d="M13.3,42.2c-0.2,0.4-0.4,0.7-0.6,1c-1,1.6-2,3.2-3,4.9c-0.1,0.2-0.2,0.2-0.4,0.2c-1.7,0-3.4,0-5.1,0
	c-1.4,0-2.4-0.9-2.4-2.4c0-0.6,0-1.2,0-1.7c0.1-1.2,1-2,2.2-2C7,42.2,10.1,42.2,13.3,42.2"/>
<path class="st2" d="M42.4,48.3c-1.4,0-2.8,0-4.2,0c-0.1,0-0.2,0-0.2,0c0-0.1,0-0.1,0.1-0.2c1.2-1.9,2.3-3.7,3.5-5.6
	c0.1-0.2,0.3-0.3,0.6-0.3c1.5,0,2.9,0,4.4,0c0.6,0,1.1,0.1,1.5,0.5c0.5,0.4,0.8,1,0.8,1.7c0,0.6,0,1.2,0,1.8c0,1.1-0.9,2-2,2.2
	c-0.3,0-0.6,0-0.8,0C44.9,48.3,43.6,48.3,42.4,48.3"/>
<path class="st2" d="M11.2,48.3c0.3-0.5,0.6-1,0.9-1.5c0.9-1.5,1.9-3,2.8-4.5c0.1-0.1,0.2-0.2,0.4-0.2c2.2,0,4.4,0,6.7,0
	c0.1,0,0.2,0,0.2,0c0,0,0,0.1-0.1,0.2c-1.2,1.9-2.4,3.8-3.6,5.7c-0.1,0.1-0.2,0.2-0.3,0.2C15.9,48.3,13.6,48.3,11.2,48.3"/>
<path class="st2" d="M31.1,42.2c-0.5,0.7-0.9,1.5-1.3,2.2c-0.8,1.3-1.6,2.5-2.3,3.8c-0.1,0.2-0.2,0.2-0.4,0.2c-2.2,0-4.4,0-6.6,0
	c-0.1,0-0.2,0-0.2,0c0-0.1,0-0.1,0.1-0.2c1.2-1.9,2.3-3.8,3.5-5.6c0.1-0.2,0.2-0.3,0.4-0.3c2.2,0,4.4,0,6.6,0H31.1z"/>
<path class="st2" d="M29,48.3c0.6-0.9,1.1-1.8,1.7-2.7c0.7-1.1,1.3-2.1,2-3.2c0.1-0.2,0.2-0.2,0.4-0.2c2.2,0,4.4,0,6.6,0
	c0.1,0,0.2,0,0.2,0c0,0.1-0.1,0.2-0.1,0.2c-1.2,1.9-2.3,3.7-3.5,5.6c-0.1,0.2-0.2,0.2-0.4,0.2c-2.2,0-4.4,0-6.6,0H29z"/>
</svg>
