<svg xmlns="http://www.w3.org/2000/svg" viewBox="0 0 24 24" fill="#B33D00"><path d="M13.58,5a6.92,6.92,0,0,1,6.92,6.92v.16A6.92,6.92,0,0,1,13.58,19H10.42A6.92,6.92,0,0,1,3.5,12.08v-.16A6.92,6.92,0,0,1,10.42,5h3.16m0-1.5H10.42A8.42,8.42,0,0,0,2,11.92v.16a8.42,8.42,0,0,0,8.42,8.42h3.16A8.42,8.42,0,0,0,22,12.08v-.16A8.42,8.42,0,0,0,13.58,3.5Zm-.91,11.42a1,1,0,0,0-1.34,0,.9.9,0,0,0-.27.66.88.88,0,0,0,.27.65,1,1,0,0,0,1.34,0,.88.88,0,0,0,.27-.65A.9.9,0,0,0,12.67,14.92ZM12.75,8h-1.5v5.57h1.5Z"></path></svg>
